Plot : In Istanbul, retired CIA operative Bryan Mills and his wife are taken hostage by the father of a kidnapper Mills killed while rescuing his daughter.



Director:
Olivier Megaton

Writers:
Luc Besson (screenplay), Robert Mark Kamen (screenplay)

Stars:
Liam Neeson, Famke Janssen and Maggie Grace

Genres:
Action | Crime | Drama | Thriller


Country:
France

Language:
English



Format : AVI
Format/Info : Audio Video Interleave
File size : 917 MiB
Duration : 1h 26mn
Overall bit rate : 1 489 Kbps

Video
ID : 0
Format : MPEG-4 Visual
Format profile : Advanced Simple@L5
Format settings, BVOP : 2
Format settings, QPel : No
Format settings, GMC : No warppoints
Format settings, Matrix : Default (H.263)
Muxing mode : Packed bitstream
Codec ID : XVID
Codec ID/Hint : XviD
Duration : 1h 26mn
Bit rate : 1 286 Kbps
Width : 680 pixels
Height : 284 pixels
Display aspect ratio : 2.40:1
Frame rate : 25.000 fps
Color space : YUV
Chroma subsampling : 4:2:0
Bit depth : 8 bits
Scan type : Progressive
Compression mode : Lossy
Bits/(Pixel*Frame) : 0.266
Stream size : 792 MiB (86%)
Writing library : XviD 64

Audio
ID : 1
Format : AC-3
Format/Info : Audio Coding 3
Mode extension : CM (complete main)
Format settings, Endianness : Big
Codec ID : 2000
Duration : 1h 26mn
Source duration : 1h 26mn
Bit rate mode : Constant
Bit rate : 192 Kbps
Channel(s) : 2 channels
Channel positions : Front: L R
Sampling rate : 48.0 KHz
Bit depth : 16 bits
Compression mode : Lossy
Stream size : 118 MiB (13%)
Alignment : Aligned on interleaves
Interleave, duration : 32 ms (0.80 video frame)


Screens :





